@startuml
'https://plantuml.com/class-diagram

class Client{}

class Abstraction{
    - Implementor pImp;

    + void operation();

    + Abstraction(Implementor);
}

Class RefinedAbstraction{
    void operation();

    + RefinedAbstraction(Implementor)
}

interface Implementor{
    void operationImp();
}

class ConcreteImplementorA{
    void operationImp();
}

class ConcreteImplementorB{
    void operationImp();
}


Abstraction o-- Implementor

Abstraction <|-- RefinedAbstraction

Implementor <|.. ConcreteImplementorA
Implementor <|.. ConcreteImplementorB

Abstraction <.. Client

@enduml