@startuml
'https://plantuml.com/class-diagram

class Product{}

class Builder{
    + Product product;

    + abstract buildPartA();
    + abstract buildPartB();
    + abstract buildPartC();
    + abstract getResult();
}

class ConcreteBuilder{
    + buildPartA();
    + buildPartB();
    + buildPartC();
    + getResult();
}


class Director{
    - Builder builder;

    + construct();
}


Builder *-- Product

Builder <|-- ConcreteBuilder

Director o-- Builder



@enduml